<svg width="69" height="65" viewBox="0 0 69 65" fill="none" xmlns="http://www.w3.org/2000/svg">
    <rect x="3" width="65" height="65" fill="url(#paint0_linear)"/>
    <path d="M68.7906 35.6617H40.0627L45.7301 44.2605H59.0192C57.1431 53.9537 46.6421 57.0285 41.6262 57.3542L46.5119 64.9758C54.329 63.4124 60.5826 58.9176 63.7095 54.8136C68.7906 48.1446 69.442 39.5703 68.7906 35.6617Z" fill="#5A6A71"/>
    <path d="M61.1006 22.2453C58.324 19.4687 55.0112 17.2866 51.3639 15.8319C47.7167 14.3772 43.8114 13.6804 39.8861 13.7839C35.9608 13.8874 32.0977 14.7892 28.5323 16.4341C24.9668 18.0791 21.7735 20.4328 19.1472 23.3519L24.2328 30.9715C26.0402 28.9626 29.8568 25.7556 32.3105 24.6236C34.7642 23.4916 37.4227 22.871 40.1239 22.7998C42.8252 22.7285 45.5127 23.2081 48.0227 24.2091C50.5326 25.2102 52.8124 26.7119 54.7232 28.6227L61.1006 22.2453Z" fill="#5A6A71"/>
    <path d="M12.1165 23.1543H0L27.7507 64.9758H40.0626L12.1165 23.1543Z" fill="#5A6A71"/>
    <defs>
        <linearGradient id="paint0_linear" x1="72" y1="-4" x2="-2.64507e-06" y2="69.5" gradientUnits="userSpaceOnUse">
            <stop stop-color="#F3D2C4"/>
            <stop offset="1" stop-color="#CBAEA2"/>
        </linearGradient>
    </defs>
</svg>
