<svg width="48" height="48" viewBox="0 0 48 48" fill="none" xmlns="http://www.w3.org/2000/svg">
    <path d="M46 22.5C46 34.3741 36.1503 44 24 44C21.3663 44 18.8406 43.5477 16.5 42.7183C15.6405 42.4137 11.8058 45.4026 11 45C10.0282 44.5145 11.3815 40.1161 10.5 39.5C9.24112 38.6202 8.79775 38.1138 7.75613 37C4.18088 33.1769 2 28.0873 2 22.5C2 10.6259 11.8497 1 24 1C36.1503 1 46 10.6259 46 22.5Z" fill="#F3D2C4"/>
    <path d="M24 0C10.9896 0 0 9.97632 0 22.5938C0 29.3555 3.26257 35.5393 8.53125 39.75V46.5938C8.53125 47.0837 8.78613 47.5382 9.20435 47.7938C9.6178 48.0461 10.1382 48.071 10.5791 47.8451L17.5591 44.2676C19.6472 44.8158 21.8112 45.0938 24 45.0938C37.2338 45.0938 48 35.0002 48 22.5938C48 9.97009 37.0034 0 24 0ZM24 42.2812C21.8837 42.2812 19.7948 41.9897 17.792 41.4152C17.4485 41.3163 17.0804 41.3522 16.7629 41.5151L11.3438 44.2928V39.0612C11.3438 38.6188 11.1357 38.2024 10.7823 37.9369C5.71729 34.1305 2.8125 28.5381 2.8125 22.5938C2.8125 11.6862 12.3171 2.8125 24 2.8125C35.6829 2.8125 45.1875 11.6862 45.1875 22.5938C45.1875 33.4493 35.6829 42.2812 24 42.2812Z" fill="#F3D2C4"/>
    <path d="M37.4337 14.3049L27.09 19.4766L22.1817 14.5683C21.899 14.2855 21.5094 14.1361 21.1098 14.1585C20.7103 14.1808 20.3393 14.372 20.0896 14.6843L8.83956 28.7468C8.42684 29.2625 8.42867 29.9956 8.84395 30.5094C9.25924 31.0228 9.97591 31.1781 10.5666 30.8829L20.9099 25.7113L25.8182 30.6196C26.1009 30.9024 26.4902 31.0514 26.8905 31.0291C27.2896 31.0071 27.6606 30.8159 27.9107 30.5036L39.1607 16.4411C39.5731 15.9254 39.5712 15.1919 39.156 14.6785C38.741 14.1651 38.0244 14.0094 37.4337 14.3049ZM26.696 27.5197L22.1817 23.0058C21.7536 22.5777 21.0999 22.4715 20.5587 22.7421L15.0351 25.5037L21.3039 17.6679L25.8182 22.1818C26.2459 22.6099 26.9 22.7161 27.4412 22.4454L32.9648 19.6839L26.696 27.5197Z" fill="#5D6C72"/>
    <path d="M21.5 16.5L13.5 25.5V27.5L22 24.5L27.5 29L36.5 16.5L34 18L26.5 21L21.5 16.5Z" fill="#5D6C72" stroke="#5D6C72"/>
</svg>
