<svg width="48" height="48" viewBox="0 0 48 48" fill="none" xmlns="http://www.w3.org/2000/svg">
    <path d="M46 22.4608C46 34.3133 36.1503 43.9217 24 43.9217C21.6817 43.9217 19.4472 43.5719 17.3488 42.9234C16.0767 42.5303 11.858 45.5211 10.6977 44.9198C9.51883 44.309 11.4004 40.103 10.3612 39.3011C9.02505 38.2699 7.81451 37.0907 6.75563 35.7887C3.77824 32.1278 2 27.4969 2 22.4608C2 10.6083 11.8497 1 24 1C36.1503 1 46 10.6083 46 22.4608Z" fill="#F3D2C4"/>
    <path d="M34.5 13.5L11 23.5L15.5 27L25 23L19.5 29V34.5L23 31L31.5 35L34.5 13.5Z" fill="#5A6A71" stroke="#5A6A71"/>
    <path d="M15.9638 28.5756L19.0998 27.2136L18.2198 28.0956C17.9378 28.3776 17.7798 28.7596 17.7798 29.1556V35.0256C17.7798 36.3696 19.4038 37.0216 20.3398 36.0856L23.4878 32.9376L30.3478 36.3676C31.2358 36.8116 32.3098 36.2856 32.4938 35.2936L36.4078 13.7716C36.6138 12.6136 35.4738 11.6776 34.3838 12.1056L8.95181 22.0596C7.81181 22.5036 7.65981 24.0636 8.69181 24.7216L14.5598 28.4656C14.9798 28.7336 15.5098 28.7756 15.9638 28.5756ZM32.9758 15.8816L29.9018 32.7916L23.8618 29.7736C23.2778 29.4816 22.5818 29.6036 22.1318 30.0556L20.7798 31.4076V29.7816L26.7938 23.7676C27.9598 22.6016 26.6478 20.6776 25.1358 21.3316L15.5018 25.5116L12.7938 23.7836L32.9758 15.8816Z" fill="#5B6A71"/>
    <path d="M24 0C10.9896 0 0 9.97633 0 22.5938C0 29.3555 3.26257 35.5393 8.53125 39.75V46.5938C8.53125 47.0838 8.78613 47.5383 9.20435 47.7939C9.6178 48.0462 10.1382 48.0711 10.5791 47.8451L17.5591 44.2676C19.6472 44.8158 21.8112 45.0938 24 45.0938C37.2338 45.0938 48 35.0003 48 22.5938C48 9.9701 37.0034 0 24 0ZM24 42.2813C21.8837 42.2813 19.7948 41.9898 17.792 41.4152C17.4485 41.3163 17.0804 41.3522 16.7629 41.5152L11.3438 44.2929V39.0612C11.3438 38.6188 11.1357 38.2024 10.7823 37.9369C5.71729 34.1305 2.8125 28.5381 2.8125 22.5938C2.8125 11.6862 12.3171 2.8125 24 2.8125C35.6829 2.8125 45.1875 11.6862 45.1875 22.5938C45.1875 33.4494 35.6829 42.2813 24 42.2813Z" fill="#F3D2C4"/>
</svg>
