<svg width="48" height="48" viewBox="0 0 48 48" fill="none" xmlns="http://www.w3.org/2000/svg">
    <path d="M46 21.5C46 32.2696 37.1979 43 25.0476 43C21.2549 43 15.0952 45 11.4286 45C9.52065 44.0825 9.8588 37.8953 8.28571 36.5C4.19976 32.8759 2 26.8486 2 21.5C2 10.7304 11.8497 2 24 2C36.1503 2 46 10.7304 46 21.5Z" fill="#F3D2C4"/>
    <path d="M24.0004 12.1319C23.2966 12.1319 23.2966 13.2442 24.0004 13.2534C29.4609 13.2961 33.9581 17.1557 34.0074 24.2355C34.0074 24.9826 35.086 24.9733 35.0769 24.2262H35.075C35.0165 16.5977 30.1063 12.1745 24.0004 12.1319Z" fill="#626F75"/>
    <path d="M31.0946 23.1582C31.078 23.9064 32.1644 23.9421 32.1736 23.1845C32.264 18.9188 29.6837 15.4051 24.8349 15.0347C24.1249 14.9821 24.0511 16.1195 24.7593 16.1721C28.9644 16.4974 31.1795 19.4226 31.0946 23.1582Z" fill="#626F75"/>
    <path d="M29.9404 27.92C29.0356 27.3884 28.1144 27.7192 27.7335 28.2416L26.9368 29.2882C26.5321 29.8198 25.7757 29.7492 25.7757 29.7492C20.2557 28.2676 18.7795 22.4046 18.7795 22.4046C18.7795 22.4046 18.7118 21.6109 19.2173 21.1852L20.2136 20.3487C20.7117 19.9472 21.0267 18.9805 20.5194 18.0306C19.1642 15.5453 18.2539 14.6883 17.7906 14.0303C17.3034 13.4113 16.5708 13.2719 15.8089 13.6901H15.7925C14.2083 14.6307 12.4739 16.3911 13.0288 18.2035C13.9757 20.1145 15.7155 26.2061 21.2612 30.8087C23.8673 32.9855 27.9917 35.2162 29.7426 35.7311L29.7591 35.7571C31.4843 36.3408 33.1619 34.5117 34.0575 32.8554V32.8424C34.4549 32.0412 34.323 31.2828 33.7425 30.7864C32.7132 29.7678 31.1601 28.6431 29.9404 27.92Z" fill="#626F75"/>
    <path d="M25.5821 19.2913C27.4256 19.3924 28.3195 20.2988 28.4155 22.1602C28.45 22.8878 29.5722 22.8373 29.5377 22.1097C29.4149 19.6795 28.0682 18.3253 25.6435 18.199C24.9049 18.1574 24.8359 19.2498 25.5821 19.2913Z" fill="#626F75"/>
    <path d="M24 0C10.9896 0 0 9.97633 0 22.5938C0 29.3555 3.26257 35.5393 8.53125 39.75V46.5938C8.53125 47.0838 8.78613 47.5383 9.20435 47.7939C9.6178 48.0462 10.1382 48.0711 10.5791 47.8451L17.5591 44.2676C19.6472 44.8158 21.8112 45.0938 24 45.0938C37.2338 45.0938 48 35.0003 48 22.5938C48 9.9701 37.0034 0 24 0ZM24 42.2813C21.8837 42.2813 19.7948 41.9898 17.792 41.4152C17.4485 41.3163 17.0804 41.3522 16.7629 41.5152L11.3438 44.2929V39.0612C11.3438 38.6188 11.1357 38.2024 10.7823 37.9369C5.71729 34.1305 2.8125 28.5381 2.8125 22.5938C2.8125 11.6862 12.3171 2.8125 24 2.8125C35.6829 2.8125 45.1875 11.6862 45.1875 22.5938C45.1875 33.4494 35.6829 42.2813 24 42.2813Z" fill="#F3D2C4"/>
</svg>
