<svg width="48" height="48" viewBox="0 0 48 48" fill="none" xmlns="http://www.w3.org/2000/svg">
    <path d="M47 22C47 33.598 36.9264 43 24.5 43C23.3095 43 22.1405 42.9137 21 42.7474C19.513 42.5307 18.3754 42.4746 17 42C15.8899 41.617 12.0198 45.5344 11 45C10.2337 44.5984 11.7074 39.4798 11 39C9.81086 38.1935 8.99742 37.281 8 36.2774C4.27648 32.5306 2 27.5134 2 22C2 10.402 12.0736 1 24.5 1C36.9264 1 47 10.402 47 22Z" fill="#F3D2C4"/>
    <path d="M29.9662 26.7653C30.4851 26.9601 33.2674 28.3702 33.8331 28.6622C34.3988 28.9542 34.7763 29.0999 34.9174 29.3431C35.0591 29.5865 35.0591 30.7537 34.5877 32.1158C34.1157 33.4776 31.8553 34.7207 30.7679 34.8882C29.7927 35.0383 28.5594 35.1009 27.2037 34.6571C26.3816 34.3884 25.3277 34.03 23.9776 33.4287C18.3011 30.9035 14.5935 25.0143 14.3106 24.6251L14.3055 24.6182C14.0044 24.204 12 21.447 12 18.5937C12 15.7238 13.4617 14.3135 13.9803 13.7298C14.4992 13.1457 15.1123 13 15.4895 13C15.8669 13 16.2443 13.0034 16.5741 13.0204C16.9216 13.0382 17.3878 12.8847 17.8475 14.0212C18.3189 15.189 19.4507 18.0588 19.5918 18.3506C19.7335 18.6423 19.8281 18.9829 19.6392 19.372C19.4507 19.7609 18.8372 20.5826 18.2246 21.3664C17.9736 21.6872 17.6466 21.9723 17.9764 22.5563C18.3067 23.1398 19.4423 25.0491 21.1244 26.5951C23.286 28.5814 25.1093 29.1974 25.6753 29.4891C26.2413 29.7811 26.571 29.7323 26.9013 29.3431C27.2316 28.9542 28.3159 27.6407 28.6933 27.0573C29.0702 26.4738 29.4479 26.5707 29.9662 26.7653Z" fill="#5A6A71"/>
    <path d="M24 0C10.9896 0 0 9.97633 0 22.5938C0 29.3555 3.26257 35.5393 8.53125 39.75V46.5938C8.53125 47.0838 8.78613 47.5383 9.20435 47.7939C9.6178 48.0462 10.1382 48.0711 10.5791 47.8451L17.5591 44.2676C19.6472 44.8158 21.8112 45.0938 24 45.0938C37.2338 45.0938 48 35.0003 48 22.5938C48 9.9701 37.0034 0 24 0ZM24 42.2813C21.8837 42.2813 19.7948 41.9898 17.792 41.4152C17.4485 41.3163 17.0804 41.3522 16.7629 41.5152L11.3438 44.2929V39.0612C11.3438 38.6188 11.1357 38.2024 10.7823 37.9369C5.71729 34.1305 2.8125 28.5381 2.8125 22.5938C2.8125 11.6862 12.3171 2.8125 24 2.8125C35.6829 2.8125 45.1875 11.6862 45.1875 22.5938C45.1875 33.4494 35.6829 42.2813 24 42.2813Z" fill="#F3D2C4"/>
</svg>
